<svg clip-rule="evenodd" fill-rule="evenodd" stroke-linejoin="round" stroke-miterlimit="2" viewBox="0 0 396 148" xmlns="http://www.w3.org/2000/svg" xmlns:xlink="http://www.w3.org/1999/xlink"><linearGradient id="a" gradientTransform="matrix(54.6095 0 0 87.1364 538.786 48.1182)" gradientUnits="userSpaceOnUse" x1="0" x2="1" y1="0" y2="0"><stop offset="0" stop-color="#ef4444"/><stop offset="1" stop-color="#f472b6"/></linearGradient><g fill-rule="nonzero"><g transform="matrix(1.06512 0 0 1.06512 -368.114 -22.6023)"><g fill="#fff"><path d="m.047 0v-.727h.511v.159h-.314v.125h.283v.159h-.283v.284z" transform="matrix(72 0 0 72 342.234 74.3)"/><path d="m.047 0v-.727h.314c.054 0 .101.01.141.029.041.02.072.048.095.085.022.037.034.081.034.133s-.012.096-.035.132c-.023.035-.055.062-.097.081-.041.018-.09.027-.145.027h-.188v-.153h.148c.023 0 .043-.003.059-.009.017-.006.03-.015.038-.028.009-.013.014-.03.014-.05 0-.021-.005-.038-.014-.051-.008-.013-.021-.023-.038-.029-.016-.006-.036-.01-.059-.01h-.07v.57zm.426-.334.182.334h-.215l-.177-.334z" transform="matrix(72 0 0 72 383.548 74.3)"/><path d="m.236 0h-.213l.24-.727h.27l.24.727h-.213l-.159-.527h-.006zm-.04-.287h.401v.148h-.401z" transform="matrix(72 0 0 72 430.896 74.3)"/><path d="m.676-.727v.727h-.165l-.262-.382h-.005v.382h-.197v-.727h.167l.259.38h.006v-.38z" transform="matrix(72 0 0 72 487.449 74.3)"/></g><path d="m591.047 41.573h-14.42c-.102-1.193-.371-2.276-.805-3.247-.435-.972-1.032-1.811-1.79-2.519-.759-.707-1.675-1.253-2.749-1.636-1.074-.384-2.292-.576-3.656-.576-2.386 0-4.402.58-6.047 1.739s-2.889 2.821-3.733 4.986-1.266 4.764-1.266 7.798c0 3.205.431 5.885 1.292 8.041.86 2.157 2.109 3.776 3.745 4.858 1.637 1.083 3.606 1.624 5.907 1.624 1.312 0 2.488-.166 3.528-.499 1.04-.332 1.943-.814 2.71-1.444.767-.631 1.394-1.394 1.88-2.289.485-.894.813-1.904.984-3.029l14.42.102c-.17 2.216-.792 4.47-1.866 6.763-1.074 2.292-2.595 4.406-4.564 6.341-1.969 1.934-4.402 3.49-7.3 4.666-2.897 1.176-6.264 1.764-10.099 1.764-4.807 0-9.115-1.031-12.925-3.094-3.81-2.062-6.818-5.096-9.025-9.102-2.208-4.006-3.312-8.906-3.312-14.702 0-5.829 1.125-10.743 3.375-14.74s5.285-7.023 9.103-9.077 8.079-3.081 12.784-3.081c3.307 0 6.349.452 9.128 1.356 2.778.903 5.216 2.22 7.312 3.95 2.097 1.73 3.784 3.856 5.063 6.379 1.278 2.523 2.054 5.412 2.326 8.668zm-26.591 32.318h5.012l-.409 2.352c2.028.307 3.605 1.023 4.73 2.148s1.696 2.523 1.713 4.193c.034 2.761-1.317 4.935-4.053 6.52-2.735 1.585-6.498 2.378-11.288 2.378v-5.421c2.523 0 4.449-.268 5.778-.805 1.33-.537 2.029-1.325 2.097-2.365.068-.955-.303-1.743-1.112-2.365-.81-.622-2.041-1.061-3.695-1.317z" fill="url(#a)"/><path d="m.751-.364c0 .081-.015.15-.047.205-.031.056-.074.098-.127.126-.054.029-.113.043-.179.043-.067 0-.126-.014-.18-.043-.053-.029-.096-.071-.127-.127-.031-.055-.047-.123-.047-.204s.016-.149.047-.204c.031-.056.074-.098.127-.126.054-.029.113-.043.18-.043.066 0 .125.014.179.043.053.028.096.07.127.126.032.055.047.123.047.204zm-.203 0c0-.043-.005-.08-.017-.11-.011-.03-.028-.053-.051-.068-.022-.016-.05-.023-.082-.023-.033 0-.06.007-.083.023-.022.015-.039.038-.051.068-.011.03-.017.067-.017.11 0 .044.006.081.017.111.012.03.029.052.051.068.023.015.05.023.083.023.032 0 .06-.008.082-.023.023-.016.04-.038.051-.068.012-.03.017-.067.017-.111z" fill="#fff" transform="matrix(72 0 0 72 593.396 74.3)"/><path d="m653.332 21.956h14.184v52.344h-14.184z" fill="#fff" stroke-width="72"/><path d="m.439-.5c-.002-.024-.011-.042-.027-.055-.015-.014-.039-.02-.071-.02-.02 0-.037.002-.05.007s-.022.011-.029.02c-.006.008-.009.017-.009.028-.001.009.001.017.005.024.003.007.009.013.017.019.008.005.019.01.031.015.013.004.028.008.045.012l.06.012c.04.009.074.02.103.034.028.014.052.031.07.049.018.019.032.04.04.064.009.023.014.049.014.077 0 .047-.012.088-.036.121s-.058.058-.101.076c-.044.017-.097.026-.159.026-.063 0-.118-.01-.165-.029-.047-.018-.083-.047-.109-.086s-.039-.089-.04-.15h.188c.001.023.007.041.017.056.01.016.024.027.042.035s.039.012.064.012c.022 0 .039-.003.053-.008.015-.005.025-.013.033-.022.007-.009.011-.02.011-.031 0-.012-.004-.021-.011-.03-.007-.008-.018-.016-.034-.023-.016-.006-.037-.013-.064-.019l-.073-.015c-.064-.014-.115-.037-.152-.07s-.055-.078-.055-.135c0-.046.012-.086.037-.121s.06-.062.104-.081c.044-.02.095-.029.153-.029.059 0 .109.01.152.029.043.02.076.048.1.083.023.036.035.077.035.125z" fill="#fff" transform="matrix(72 0 0 72 670.194 74.3)"/></g><g fill="#fff"><path d="m.246-.727.149.513h.006l.149-.513h.223l-.24.727h-.27l-.24-.727z" transform="matrix(109.23192 0 0 109.23192 -2.48337626 146.574073)"/><path d="m.751-.364c0 .081-.015.15-.047.205-.031.056-.074.098-.127.126-.054.029-.113.043-.179.043-.067 0-.126-.014-.18-.043-.053-.029-.096-.071-.127-.127-.031-.055-.047-.123-.047-.204s.016-.149.047-.204c.031-.056.074-.098.127-.126.054-.029.113-.043.18-.043.066 0 .125.014.179.043.053.028.096.07.127.126.032.055.047.123.047.204zm-.203 0c0-.043-.005-.08-.017-.11-.011-.03-.028-.053-.051-.068-.022-.016-.05-.023-.082-.023-.033 0-.06.007-.083.023-.022.015-.039.038-.051.068-.011.03-.017.067-.017.11 0 .044.006.081.017.111.012.03.029.052.051.068.023.015.05.023.083.023.032 0 .06-.008.082-.023.023-.016.04-.038.051-.068.012-.03.017-.067.017-.111z" transform="matrix(109.23192 0 0 109.23192 78.34824454 146.574073)"/><path d="m.047 0v-.727h.314c.054 0 .101.01.141.029.041.02.072.048.095.085.022.037.034.081.034.133s-.012.096-.035.132c-.023.035-.055.062-.097.081-.041.018-.09.027-.145.027h-.188v-.153h.148c.023 0 .043-.003.059-.009.017-.006.03-.015.038-.028.009-.013.014-.03.014-.05 0-.021-.005-.038-.014-.051-.008-.013-.021-.023-.038-.029-.016-.006-.036-.01-.059-.01h-.07v.57zm.426-.334.182.334h-.215l-.177-.334z" transform="matrix(109.23192 0 0 109.23192 164.14536637 146.574073)"/><path d="m.751-.364c0 .081-.015.15-.047.205-.031.056-.074.098-.127.126-.054.029-.113.043-.179.043-.067 0-.126-.014-.18-.043-.053-.029-.096-.071-.127-.127-.031-.055-.047-.123-.047-.204s.016-.149.047-.204c.031-.056.074-.098.127-.126.054-.029.113-.043.18-.043.066 0 .125.014.179.043.053.028.096.07.127.126.032.055.047.123.047.204zm-.203 0c0-.043-.005-.08-.017-.11-.011-.03-.028-.053-.051-.068-.022-.016-.05-.023-.082-.023-.033 0-.06.007-.083.023-.022.015-.039.038-.051.068-.011.03-.017.067-.017.11 0 .044.006.081.017.111.012.03.029.052.051.068.023.015.05.023.083.023.032 0 .06-.008.082-.023.023-.016.04-.038.051-.068.012-.03.017-.067.017-.111z" transform="matrix(109.23192 0 0 109.23192 235.97749065 146.574073)"/><path d="m.676-.727v.727h-.165l-.262-.382h-.005v.382h-.197v-.727h.167l.259.38h.006v-.38z" transform="matrix(109.23192 0 0 109.23192 321.77461248 146.574073)"/></g></g></svg>