<svg clip-rule="evenodd" fill-rule="evenodd" stroke-linejoin="round" stroke-miterlimit="2" viewBox="0 0 500 500" xmlns="http://www.w3.org/2000/svg" xmlns:xlink="http://www.w3.org/1999/xlink"><linearGradient id="a" gradientTransform="matrix(207.304 0 0 330.78 0 99.3893)" gradientUnits="userSpaceOnUse" x1="0" x2="1" y1="0" y2="0"><stop offset="0" stop-color="#ef4444"/><stop offset=".64" stop-color="#f04b55"/><stop offset=".83" stop-color="#f25d82"/><stop offset="1" stop-color="#f472b6"/></linearGradient><path d="m43.529 80.424h331.847v294.576h-331.847z" fill="#191919" transform="matrix(1.50672 0 0 1.69736 -65.5859 -136.508)"/><path d="m198.39 74.542h-54.741c-.389-4.529-1.408-8.638-3.058-12.327-1.65-3.688-3.915-6.875-6.794-9.56s-6.357-4.756-10.434-6.212c-4.076-1.456-8.703-2.184-13.879-2.184-9.059 0-16.711 2.2-22.955 6.6s-10.968 10.709-14.171 18.927-4.804 18.086-4.804 29.603c0 12.165 1.634 22.34 4.901 30.526 3.268 8.185 8.008 14.332 14.219 18.441 6.212 4.109 13.686 6.163 22.421 6.163 4.983 0 9.447-.631 13.395-1.892 3.947-1.262 7.376-3.09 10.288-5.484s5.29-5.29 7.134-8.687 3.09-7.231 3.737-11.502l54.741.389c-.647 8.411-3.008 16.969-7.085 25.672-4.076 8.703-9.852 16.727-17.325 24.071-7.474 7.344-16.711 13.248-27.711 17.713s-23.779 6.697-38.338 6.697c-18.248 0-34.602-3.914-49.064-11.744-14.462-7.829-25.883-19.347-34.262-34.553-8.38-15.206-12.57-33.809-12.57-55.81 0-22.129 4.271-40.781 12.812-55.955 8.542-15.173 20.059-26.659 34.554-34.456 14.494-7.797 30.671-11.696 48.53-11.696 12.553 0 24.103 1.715 34.65 5.144 10.547 3.43 19.8 8.429 27.759 14.996 7.959 6.568 14.365 14.64 19.218 24.217 4.853 9.576 7.797 20.544 8.832 32.903zm-100.942 122.684h19.024l-1.553 8.929c7.7 1.165 13.685 3.883 17.956 8.153 4.271 4.271 6.438 9.577 6.503 15.918.129 10.483-4.999 18.733-15.384 24.75-10.385 6.018-24.669 9.027-42.852 9.027v-20.577c9.577 0 16.888-1.019 21.936-3.057 5.047-2.038 7.7-5.031 7.959-8.978.258-3.624-1.149-6.616-4.223-8.978-3.073-2.362-7.748-4.028-14.025-4.999z" fill="url(#a)" fill-rule="nonzero" transform="matrix(1.34277 0 0 1.34277 108.723 74.5767)"/></svg>