<svg clip-rule="evenodd" fill-rule="evenodd" stroke-linejoin="round" stroke-miterlimit="2" viewBox="0 0 1441 338" xmlns="http://www.w3.org/2000/svg"><g fill-rule="nonzero"><path d="m.041-.7h.166c.057 0 .098.013.124.039.026.027.039.067.039.122v.028c0 .036-.001.067-.013.089-.011.023-.014.04-.038.05.055.018.062.067.062.146v.06c0 .054-.014.095-.042.123-.029.029-.136.039-.191.039 0 0-.045.052-.076.089-.005.006-.013.008-.02.005-.006-.002-.011-.009-.011-.016zm.153.285c.022 0 .039-.006.05-.017s.016-.03.016-.057v-.039c0-.025-.004-.044-.013-.055s-.024-.017-.043-.017h-.053v.185zm.02.315c.019 0 .034-.005.043-.016.009-.01.014-.028.014-.053v-.061c0-.032-.005-.054-.016-.067-.011-.012-.03-.018-.055-.018h-.049v.215z" fill="#13f6b9" transform="matrix(398.448 -35.2002 35.2002 398.448 8.306 290.975)"/><g fill="#fff"><path d="m.041-.7h.3v.1h-.19v.185h.151v.1h-.151v.215h.19v.1h-.3z" transform="matrix(400 0 0 400 159.392 283.997)"/><path d="m.041-.7h.3v.1h-.19v.185h.151v.1h-.151v.215h.19v.1h-.3z" transform="matrix(400 0 0 400 304.592 283.997)"/><path d="m.041-.7h.157l.07.501h.002l.07-.501h.157v.7h-.104v-.53h-.002l-.08.53h-.092l-.08-.53h-.002v.53h-.096z" transform="matrix(400 0 0 400 449.793 283.997)"/><path d="m.142-.298-.133-.402h.117l.075.257h.002l.075-.257h.107l-.133.402v.298h-.11z" transform="matrix(400 0 0 400 664.993 283.997)"/><path d="m.041-.7h.168c.055 0 .096.015.123.044s.041.072.041.129v.354c0 .057-.014.1-.041.129s-.068.044-.123.044h-.168zm.166.6c.018 0 .032-.005.042-.016.009-.011.014-.028.014-.052v-.364c0-.024-.005-.041-.014-.052-.01-.011-.024-.016-.042-.016h-.056v.5z" transform="matrix(400 0 0 400 822.593 283.997)"/><path d="m.041-.7h.3v.1h-.19v.185h.151v.1h-.151v.215h.19v.1h-.3z" transform="matrix(400 0 0 400 984.993 283.997)"/><path d="m.184.01c-.053 0-.094-.015-.121-.046-.027-.03-.041-.073-.041-.13v-.04h.104v.048c0 .045.019.068.057.068.019 0 .033-.005.043-.017.009-.01.014-.028.014-.053 0-.029-.007-.055-.02-.078-.013-.022-.038-.049-.074-.08-.045-.04-.077-.076-.095-.109-.018-.032-.027-.068-.027-.109 0-.055.014-.098.042-.129.028-.03.069-.045.122-.045s.093.015.12.045c.027.031.04.074.04.131v.029h-.104v-.036c0-.024-.005-.042-.014-.053-.009-.01-.023-.016-.041-.016-.037 0-.055.022-.055.067 0 .025.007.049.021.071.013.022.038.049.074.08.046.04.078.076.095.109s.026.071.026.115c0 .057-.014.101-.042.132-.029.031-.07.046-.124.046z" transform="matrix(400 0 0 400 1130.993 283.997)"/><path d="m.041-.7h.11v.295l.14-.295h.11l-.131.257.133.443h-.115l-.093-.312-.044.089v.223h-.11z" transform="matrix(400 0 0 400 1279.793 283.997)"/></g></g></svg>