<svg clip-rule="evenodd" fill-rule="evenodd" stroke-linejoin="round" stroke-miterlimit="2" viewBox="0 0 150 100" xmlns="http://www.w3.org/2000/svg"><path d="m-.002-7.965h7.967v7.964h-7.967z" fill="#d71920" transform="matrix(0 1.70082431967 1.70082431967 0 61.635448812 50.142249941)"/><g fill="#6d6e71"><path d="m0 25.9v-25.9h-25.004v5.384h19.474v20.516z" fill-rule="nonzero" transform="matrix(1.70082431967 0 0 1.70082431967 97.442373273 13.0046)"/><path d="m0 19.763v-19.763h-19.333v5.078h14.246v14.685z" fill-rule="nonzero" transform="matrix(1.70082431967 0 0 1.70082431967 79.38430605 30.8379134042)"/><path d="m0 6.18c-.32.221-.753.39-1.3.504-.548.116-1.007.173-1.377.173-1.438 0-2.501-.357-3.191-1.07-.691-.715-1.035-1.586-1.035-2.614 0-.991.381-1.881 1.143-2.669.763-.788 1.825-1.181 3.186-1.181.366 0 .793.055 1.282.168.487.111.852.244 1.093.398l-.275 1.796h-.515v-.624c-.137-.106-.344-.199-.62-.279-.276-.079-.593-.12-.951-.12-.704 0-1.262.239-1.671.716s-.615 1.027-.619 1.652c-.004.746.18 1.341.551 1.786s.948.667 1.733.667c.232 0 .425-.011.579-.033s.281-.05.38-.082v-1.93h-1.442v-.821h3.049z" fill-rule="nonzero" transform="matrix(1.70082431967 0 0 1.70082431967 11.740794975 75.332760818)"/><path d="m0-2.631c0-.368-.108-.643-.324-.826-.215-.182-.523-.274-.923-.274h-.818v2.19h.88c.367 0 .655-.099.867-.295.212-.197.318-.462.318-.795m3.134 5.004h-2.16l-2.252-3.127h-.787v3.127h-1.944v-7.377h2.922c.958 0 1.699.187 2.226.558.526.372.789.882.789 1.532 0 .484-.127.877-.381 1.179s-.592.509-1.015.622z" fill-rule="nonzero" transform="matrix(1.70082431967 0 0 1.70082431967 20.619509673 82.787680892)"/><path d="m0 .009c.007-.802-.144-1.402-.452-1.801-.309-.398-.786-.6-1.43-.607-.618-.006-1.09.183-1.416.569-.326.384-.489.999-.489 1.839 0 .787.153 1.383.461 1.79.306.406.788.609 1.444.609.655 0 1.132-.197 1.427-.59.296-.393.447-.996.455-1.809m2.082-.002c.004 1.127-.349 2.036-1.056 2.728-.707.691-1.677 1.036-2.908 1.036-1.216 0-2.181-.334-2.891-1.003-.712-.669-1.067-1.589-1.067-2.761s.351-2.093 1.055-2.764c.703-.671 1.671-1.005 2.903-1.005 1.274 0 2.251.316 2.934.947.683.634 1.026 1.574 1.03 2.822" fill-rule="nonzero" transform="matrix(1.70082431967 0 0 1.70082431967 36.073885953 80.57973791)"/><path d="m0 2.629c0 .708-.261 1.289-.784 1.742-.522.455-1.327.682-2.414.682-1.067 0-1.848-.219-2.342-.655-.494-.437-.74-1.026-.74-1.769v-5.053h1.945v5.087c0 .341.102.611.306.808s.531.295.983.295c.47 0 .812-.109 1.026-.327.214-.217.321-.563.321-1.04v-4.823h1.699z" fill-rule="nonzero" transform="matrix(1.70082431967 0 0 1.70082431967 51.897885522 78.400776986)"/><path d="m0-2.665c0-.366-.118-.638-.354-.816-.238-.178-.569-.267-.996-.267h-.852v2.194h.904c.449 0 .778-.1.986-.298s.312-.47.312-.813m1.928-.214c0 .724-.259 1.262-.776 1.616-.516.354-1.256.53-2.222.53h-1.132v3.089h-1.945v-7.377h3.06c.927 0 1.661.178 2.202.531.542.354.813.891.813 1.611" fill-rule="nonzero" transform="matrix(1.70082431967 0 0 1.70082431967 61.145407113 82.817275247)"/><path d="m0 7.376h-5.24v-7.376h5.046v1.272h-3.113v1.969h3.239v.821h-3.239v2.051h3.307z" fill-rule="nonzero" transform="matrix(1.70082431967 0 0 1.70082431967 74.771056353 74.278385384)"/><path d="m0 2.708c0-.374-.124-.651-.372-.831-.247-.178-.574-.268-.978-.268h-1.201v2.199h1.367c.4 0 .698-.096.892-.288.195-.192.292-.463.292-.812m-.327-2.818c0-.294-.101-.534-.303-.716s-.493-.273-.872-.273h-1.049v1.978h1.158c.345 0 .608-.088.792-.264.183-.176.274-.418.274-.725m2.254 3.02c0 .647-.247 1.164-.741 1.551-.493.388-1.121.581-1.885.581h-3.757v-7.376h3.684c.693 0 1.259.166 1.696.497.437.332.654.781.654 1.347 0 .459-.129.826-.388 1.105-.26.279-.653.448-1.179.509.523.07.973.259 1.35.564.377.306.566.713.566 1.222" fill-rule="nonzero" transform="matrix(1.70082431967 0 0 1.70082431967 87.457441995 78.247498637)"/><path d="m0-2.631c0-.368-.107-.643-.324-.826-.214-.182-.523-.274-.922-.274h-.818v2.19h.88c.366 0 .655-.099.867-.295.212-.197.317-.462.317-.795m3.135 5.004h-2.161l-2.252-3.127h-.786v3.127h-1.945v-7.377h2.923c.956 0 1.698.187 2.225.558.526.372.79.882.79 1.532 0 .484-.128.877-.381 1.179-.255.302-.592.509-1.015.622z" fill-rule="nonzero" transform="matrix(1.70082431967 0 0 1.70082431967 99.311716014 82.787680892)"/><path d="m193.029 784.752h1.945v7.375h-1.945z" transform="matrix(-1.70082431967 0 0 1.70082431967 437.41273086 -1260.44457763)"/><path d="m0 3.505-1.191-2.46-1.183 2.46zm3.092 1.964h-2.112l-.612-1.238h-3.044l-.54 1.238h-1.922l3.798-7.433h.607z" fill-rule="nonzero" transform="matrix(1.70082431967 0 0 1.70082431967 118.958489853 77.521314395)"/><path d="m0 7.376h-.847l-4.003-4.246v4.246h-1.854v-7.376h.847l4.003 4.228v-4.228h1.854z" fill-rule="nonzero" transform="matrix(1.70082431967 0 0 1.70082431967 136.345275465 74.278385384)"/><path d="m0 0c0-.816-.179-1.423-.539-1.819-.359-.397-.932-.596-1.719-.596h-.504v4.831h.618c.761 0 1.308-.2 1.643-.598.334-.399.501-1.005.501-1.818m1.928 0c0 1.21-.325 2.127-.973 2.752-.648.624-1.693.936-3.134.936h-2.529v-7.376h2.42c1.431 0 2.49.316 3.181.947.689.631 1.035 1.544 1.035 2.741" fill-rule="nonzero" transform="matrix(1.70082431967 0 0 1.70082431967 146.720444031 80.550143555)"/></g></svg>