<svg fill="none" height="25" width="85" xmlns="http://www.w3.org/2000/svg"><g fill="#364797"><path d="m33.115 20.351v-15.9h6.337c.833 0 1.59.213 2.272.636a4.37 4.37 0 0 1 1.612 1.704c.41.727.614 1.537.614 2.43 0 .924-.205 1.757-.614 2.499a4.67 4.67 0 0 1 -1.612 1.771 4.106 4.106 0 0 1 -2.272.66h-4.36v6.2zm1.976-8.131h4.407c.454 0 .863-.13 1.226-.387.364-.272.651-.636.863-1.09s.318-.961.318-1.522c0-.545-.106-1.03-.318-1.453a2.715 2.715 0 0 0 -.863-1.022 2.072 2.072 0 0 0 -1.226-.387h-4.408v5.86zm16.177 8.358c-1.166 0-2.21-.265-3.134-.795a6.021 6.021 0 0 1 -2.158-2.203c-.53-.939-.795-2.006-.795-3.203 0-1.196.265-2.256.795-3.18a5.847 5.847 0 0 1 2.158-2.18c.923-.53 1.968-.795 3.134-.795s2.203.265 3.112.795a5.634 5.634 0 0 1 2.158 2.18c.53.924.795 1.984.795 3.18 0 1.197-.265 2.264-.795 3.203a5.796 5.796 0 0 1 -2.158 2.203c-.909.53-1.946.795-3.112.795zm0-1.772c.803 0 1.514-.189 2.135-.567a4.09 4.09 0 0 0 1.454-1.59c.363-.667.537-1.424.522-2.272.015-.848-.159-1.597-.522-2.248a3.926 3.926 0 0 0 -1.454-1.568c-.62-.378-1.332-.567-2.135-.567-.802 0-1.522.189-2.158.567a3.925 3.925 0 0 0 -1.453 1.568c-.349.666-.523 1.415-.523 2.248 0 .848.174 1.605.523 2.272a4.09 4.09 0 0 0 1.453 1.59c.636.378 1.356.567 2.158.567zm8.14 1.545v-16.808h1.908v16.808zm9.435.227a5.055 5.055 0 0 1 -2.77-.795c-.819-.545-1.47-1.287-1.954-2.226-.485-.939-.727-1.999-.727-3.18 0-1.196.25-2.256.75-3.18.5-.923 1.166-1.65 1.998-2.18.848-.53 1.795-.795 2.84-.795.62 0 1.188.09 1.703.273.53.181 1 .439 1.408.772.41.318.75.696 1.022 1.135.273.424.455.879.546 1.363l-.5-.227.022-3.066h1.908v11.878h-1.907v-2.885l.477-.25c-.107.44-.31.864-.614 1.272a4.657 4.657 0 0 1 -1.09 1.09 5.53 5.53 0 0 1 -1.431.727c-.53.182-1.09.273-1.68.273zm.454-1.794c.773 0 1.454-.19 2.045-.568a4.083 4.083 0 0 0 1.408-1.545c.348-.666.522-1.43.522-2.294 0-.848-.174-1.597-.522-2.248a3.854 3.854 0 0 0 -1.408-1.545c-.59-.378-1.272-.568-2.044-.568-.773 0-1.454.19-2.045.568a4.09 4.09 0 0 0 -1.408 1.545c-.333.65-.5 1.4-.5 2.248s.167 1.605.5 2.272a4.042 4.042 0 0 0 1.408 1.567c.59.378 1.272.568 2.044.568zm8.243 1.567v-11.88h1.909l.045 3.34-.204-.568c.166-.56.439-1.068.817-1.522a4.425 4.425 0 0 1 1.34-1.09 3.625 3.625 0 0 1 1.681-.41c.258 0 .5.024.727.07.242.03.44.075.59.135l-.522 2.113a2.918 2.918 0 0 0 -.613-.205 2.832 2.832 0 0 0 -.59-.068c-.485 0-.932.091-1.34.273a3.135 3.135 0 0 0 -1.023.75 3.621 3.621 0 0 0 -.658 1.067 3.764 3.764 0 0 0 -.227 1.317v6.678z"/><g clip-rule="evenodd" fill-rule="evenodd"><path d="m5.405 22.431c5.504 3.726 12.985 2.284 16.71-3.22 3.726-5.503 2.285-12.984-3.219-16.71-5.503-3.725-12.985-2.284-16.71 3.22-3.726 5.503-2.284 12.985 3.22 16.71zm1.596.099c5.035 2.575 11.421.157 14.265-5.4 2.843-5.558 1.067-12.152-3.967-14.728-5.035-2.575-11.42-.158-14.264 5.4-2.845 5.558-1.068 12.152 3.965 14.728z"/><path d="m8.436 23.844c4.544 1.48 9.89-2.428 11.94-8.727 2.051-6.3.029-12.605-4.515-14.084-4.545-1.479-9.891 2.428-11.941 8.728-2.05 6.299-.028 12.604 4.516 14.083zm1.39-.479c3.846.82 8.005-3.394 9.289-9.414s-.793-11.564-4.64-12.385c-3.845-.82-8.004 3.395-9.288 9.415s.793 11.564 4.64 12.385z"/><path d="m10.88 24.358c3.041.325 6.076-4.747 6.779-11.328.701-6.58-1.193-12.179-4.234-12.504-3.04-.324-6.075 4.747-6.778 11.328-.702 6.581 1.193 12.18 4.234 12.504zm1.423-2.003c2.201-.035 3.915-4.49 3.829-9.95-.087-5.46-1.94-9.859-4.14-9.824-2.201.035-3.915 4.49-3.83 9.95.087 5.46 1.94 9.859 4.141 9.824z"/></g></g></svg>