<?xml version="1.0" encoding="UTF-8" standalone="no"?>
<!DOCTYPE svg PUBLIC "-//W3C//DTD SVG 1.1//EN" "http://www.w3.org/Graphics/SVG/1.1/DTD/svg11.dtd">
<svg width="100%" height="100%" viewBox="0 0 397 137" version="1.1" xmlns="http://www.w3.org/2000/svg" xmlns:xlink="http://www.w3.org/1999/xlink" xml:space="preserve" xmlns:serif="http://www.serif.com/" style="fill-rule:evenodd;clip-rule:evenodd;stroke-linejoin:round;stroke-miterlimit:2;">
    <g transform="matrix(1,0,0,1,-346.338,-22.748)">
        <g transform="matrix(72,0,0,72,342.234,74.3)">
            <path d="M0.293,-0.522L0.293,-0.402L0.585,-0.402L0.585,-0.224L0.293,-0.224L0.293,0L0.057,0L0.057,-0.7L0.626,-0.7L0.626,-0.522L0.293,-0.522Z" style="fill:white;fill-rule:nonzero;"/>
        </g>
        <g transform="matrix(72,0,0,72,388.602,74.3)">
            <path d="M0.357,-0.176L0.293,-0.176L0.293,0L0.057,0L0.057,-0.7L0.394,-0.7C0.459,-0.7 0.515,-0.689 0.563,-0.668C0.611,-0.647 0.648,-0.616 0.674,-0.576C0.7,-0.536 0.713,-0.489 0.713,-0.436C0.713,-0.386 0.702,-0.342 0.679,-0.305C0.656,-0.268 0.624,-0.238 0.581,-0.216L0.728,0L0.476,0L0.357,-0.176ZM0.475,-0.436C0.475,-0.462 0.467,-0.482 0.451,-0.497C0.435,-0.511 0.411,-0.518 0.379,-0.518L0.293,-0.518L0.293,-0.354L0.379,-0.354C0.411,-0.354 0.435,-0.361 0.451,-0.376C0.467,-0.39 0.475,-0.41 0.475,-0.436Z" style="fill:white;fill-rule:nonzero;"/>
        </g>
        <g transform="matrix(72,0,0,72,442.242,74.3)">
            <path d="M0.534,-0.122L0.268,-0.122L0.221,0L-0.019,0L0.287,-0.7L0.519,-0.7L0.825,0L0.581,0L0.534,-0.122ZM0.469,-0.292L0.401,-0.468L0.333,-0.292L0.469,-0.292Z" style="fill:white;fill-rule:nonzero;"/>
        </g>
        <g transform="matrix(72,0,0,72,500.274,74.3)">
            <path d="M0.747,-0.7L0.747,0L0.553,0L0.287,-0.318L0.287,0L0.057,0L0.057,-0.7L0.251,-0.7L0.517,-0.382L0.517,-0.7L0.747,-0.7Z" style="fill:white;fill-rule:nonzero;"/>
        </g>
        <g transform="matrix(72,0,0,72,558.162,74.3)">
            <path d="M0.419,0.016C0.345,0.016 0.278,0.001 0.219,-0.031C0.16,-0.062 0.113,-0.105 0.08,-0.161C0.046,-0.216 0.029,-0.279 0.029,-0.35C0.029,-0.421 0.046,-0.484 0.08,-0.54C0.113,-0.595 0.16,-0.639 0.219,-0.67C0.278,-0.7 0.345,-0.716 0.419,-0.716C0.487,-0.716 0.548,-0.704 0.601,-0.68C0.654,-0.656 0.698,-0.621 0.733,-0.576L0.584,-0.443C0.541,-0.498 0.49,-0.525 0.431,-0.525C0.382,-0.525 0.342,-0.509 0.312,-0.478C0.282,-0.446 0.267,-0.403 0.267,-0.35C0.267,-0.297 0.282,-0.254 0.312,-0.223C0.342,-0.191 0.382,-0.175 0.431,-0.175C0.49,-0.175 0.541,-0.202 0.584,-0.257L0.733,-0.124C0.698,-0.079 0.654,-0.044 0.601,-0.02C0.548,0.004 0.487,0.016 0.419,0.016ZM0.351,0.24C0.334,0.24 0.316,0.238 0.297,0.234C0.278,0.23 0.264,0.225 0.253,0.219L0.281,0.136C0.301,0.144 0.321,0.148 0.341,0.148C0.373,0.148 0.389,0.14 0.389,0.124C0.389,0.111 0.375,0.104 0.348,0.104L0.307,0.104L0.334,-0.01L0.45,-0.01L0.436,0.052C0.465,0.056 0.487,0.066 0.501,0.081C0.514,0.096 0.521,0.113 0.521,0.132C0.521,0.165 0.506,0.192 0.475,0.211C0.444,0.23 0.402,0.24 0.351,0.24Z" style="fill:rgb(253,71,102);fill-rule:nonzero;"/>
        </g>
        <g transform="matrix(72,0,0,72,610.65,74.3)">
            <path d="M0.424,0.016C0.349,0.016 0.281,0 0.221,-0.031C0.161,-0.062 0.114,-0.106 0.08,-0.162C0.046,-0.217 0.029,-0.28 0.029,-0.35C0.029,-0.42 0.046,-0.483 0.08,-0.539C0.114,-0.594 0.161,-0.638 0.221,-0.669C0.281,-0.7 0.349,-0.716 0.424,-0.716C0.499,-0.716 0.567,-0.7 0.627,-0.669C0.687,-0.638 0.734,-0.594 0.768,-0.539C0.802,-0.483 0.819,-0.42 0.819,-0.35C0.819,-0.28 0.802,-0.217 0.768,-0.162C0.734,-0.106 0.687,-0.062 0.627,-0.031C0.567,0 0.499,0.016 0.424,0.016ZM0.424,-0.175C0.453,-0.175 0.48,-0.182 0.504,-0.197C0.527,-0.211 0.546,-0.231 0.56,-0.258C0.574,-0.284 0.581,-0.315 0.581,-0.35C0.581,-0.385 0.574,-0.416 0.56,-0.443C0.546,-0.469 0.527,-0.489 0.504,-0.504C0.48,-0.518 0.453,-0.525 0.424,-0.525C0.395,-0.525 0.368,-0.518 0.345,-0.504C0.321,-0.489 0.302,-0.469 0.288,-0.443C0.274,-0.416 0.267,-0.385 0.267,-0.35C0.267,-0.315 0.274,-0.284 0.288,-0.258C0.302,-0.231 0.321,-0.211 0.345,-0.197C0.368,-0.182 0.395,-0.175 0.424,-0.175Z" style="fill:white;fill-rule:nonzero;"/>
        </g>
        <g transform="matrix(72,0,0,72,671.706,74.3)">
            <rect x="0.057" y="-0.7" width="0.236" height="0.7" style="fill:white;fill-rule:nonzero;"/>
        </g>
        <g transform="matrix(72,0,0,72,696.906,74.3)">
            <path d="M0.318,0.016C0.26,0.016 0.204,0.01 0.149,-0.004C0.093,-0.017 0.048,-0.034 0.013,-0.056L0.089,-0.228C0.122,-0.209 0.16,-0.193 0.201,-0.182C0.242,-0.17 0.282,-0.164 0.32,-0.164C0.353,-0.164 0.376,-0.167 0.39,-0.174C0.404,-0.18 0.411,-0.189 0.411,-0.202C0.411,-0.217 0.402,-0.228 0.384,-0.235C0.365,-0.242 0.335,-0.25 0.293,-0.259C0.239,-0.27 0.194,-0.283 0.158,-0.296C0.122,-0.309 0.091,-0.33 0.064,-0.36C0.037,-0.389 0.024,-0.429 0.024,-0.48C0.024,-0.524 0.036,-0.564 0.061,-0.6C0.086,-0.636 0.123,-0.664 0.172,-0.685C0.221,-0.706 0.28,-0.716 0.35,-0.716C0.398,-0.716 0.445,-0.711 0.492,-0.701C0.538,-0.69 0.579,-0.675 0.614,-0.655L0.543,-0.484C0.474,-0.519 0.409,-0.536 0.348,-0.536C0.287,-0.536 0.257,-0.521 0.257,-0.492C0.257,-0.478 0.266,-0.468 0.284,-0.461C0.302,-0.454 0.332,-0.446 0.373,-0.438C0.426,-0.428 0.471,-0.417 0.508,-0.404C0.545,-0.391 0.577,-0.369 0.604,-0.34C0.631,-0.311 0.644,-0.271 0.644,-0.22C0.644,-0.176 0.632,-0.136 0.607,-0.101C0.582,-0.065 0.546,-0.037 0.497,-0.016C0.448,0.006 0.388,0.016 0.318,0.016Z" style="fill:white;fill-rule:nonzero;"/>
        </g>
    </g>
    <g transform="matrix(1.38936,0,0,1.38936,-473.588,31.7165)">
        <g transform="matrix(72,0,0,72,342.234,74.3)">
            <path d="M0.805,-0.7L0.509,0L0.277,0L-0.019,-0.7L0.235,-0.7L0.402,-0.291L0.573,-0.7L0.805,-0.7Z" style="fill:white;fill-rule:nonzero;"/>
        </g>
        <g transform="matrix(72,0,0,72,397.026,74.3)">
            <path d="M0.424,0.016C0.349,0.016 0.281,0 0.221,-0.031C0.161,-0.062 0.114,-0.106 0.08,-0.162C0.046,-0.217 0.029,-0.28 0.029,-0.35C0.029,-0.42 0.046,-0.483 0.08,-0.539C0.114,-0.594 0.161,-0.638 0.221,-0.669C0.281,-0.7 0.349,-0.716 0.424,-0.716C0.499,-0.716 0.567,-0.7 0.627,-0.669C0.687,-0.638 0.734,-0.594 0.768,-0.539C0.802,-0.483 0.819,-0.42 0.819,-0.35C0.819,-0.28 0.802,-0.217 0.768,-0.162C0.734,-0.106 0.687,-0.062 0.627,-0.031C0.567,0 0.499,0.016 0.424,0.016ZM0.424,-0.175C0.453,-0.175 0.48,-0.182 0.504,-0.197C0.527,-0.211 0.546,-0.231 0.56,-0.258C0.574,-0.284 0.581,-0.315 0.581,-0.35C0.581,-0.385 0.574,-0.416 0.56,-0.443C0.546,-0.469 0.527,-0.489 0.504,-0.504C0.48,-0.518 0.453,-0.525 0.424,-0.525C0.395,-0.525 0.368,-0.518 0.345,-0.504C0.321,-0.489 0.302,-0.469 0.288,-0.443C0.274,-0.416 0.267,-0.385 0.267,-0.35C0.267,-0.315 0.274,-0.284 0.288,-0.258C0.302,-0.231 0.321,-0.211 0.345,-0.197C0.368,-0.182 0.395,-0.175 0.424,-0.175Z" style="fill:white;fill-rule:nonzero;"/>
        </g>
        <g transform="matrix(72,0,0,72,458.082,74.3)">
            <path d="M0.357,-0.176L0.293,-0.176L0.293,0L0.057,0L0.057,-0.7L0.394,-0.7C0.459,-0.7 0.515,-0.689 0.563,-0.668C0.611,-0.647 0.648,-0.616 0.674,-0.576C0.7,-0.536 0.713,-0.489 0.713,-0.436C0.713,-0.386 0.702,-0.342 0.679,-0.305C0.656,-0.268 0.624,-0.238 0.581,-0.216L0.728,0L0.476,0L0.357,-0.176ZM0.475,-0.436C0.475,-0.462 0.467,-0.482 0.451,-0.497C0.435,-0.511 0.411,-0.518 0.379,-0.518L0.293,-0.518L0.293,-0.354L0.379,-0.354C0.411,-0.354 0.435,-0.361 0.451,-0.376C0.467,-0.39 0.475,-0.41 0.475,-0.436Z" style="fill:white;fill-rule:nonzero;"/>
        </g>
        <g transform="matrix(72,0,0,72,511.722,74.3)">
            <path d="M0.424,0.016C0.349,0.016 0.281,0 0.221,-0.031C0.161,-0.062 0.114,-0.106 0.08,-0.162C0.046,-0.217 0.029,-0.28 0.029,-0.35C0.029,-0.42 0.046,-0.483 0.08,-0.539C0.114,-0.594 0.161,-0.638 0.221,-0.669C0.281,-0.7 0.349,-0.716 0.424,-0.716C0.499,-0.716 0.567,-0.7 0.627,-0.669C0.687,-0.638 0.734,-0.594 0.768,-0.539C0.802,-0.483 0.819,-0.42 0.819,-0.35C0.819,-0.28 0.802,-0.217 0.768,-0.162C0.734,-0.106 0.687,-0.062 0.627,-0.031C0.567,0 0.499,0.016 0.424,0.016ZM0.424,-0.175C0.453,-0.175 0.48,-0.182 0.504,-0.197C0.527,-0.211 0.546,-0.231 0.56,-0.258C0.574,-0.284 0.581,-0.315 0.581,-0.35C0.581,-0.385 0.574,-0.416 0.56,-0.443C0.546,-0.469 0.527,-0.489 0.504,-0.504C0.48,-0.518 0.453,-0.525 0.424,-0.525C0.395,-0.525 0.368,-0.518 0.345,-0.504C0.321,-0.489 0.302,-0.469 0.288,-0.443C0.274,-0.416 0.267,-0.385 0.267,-0.35C0.267,-0.315 0.274,-0.284 0.288,-0.258C0.302,-0.231 0.321,-0.211 0.345,-0.197C0.368,-0.182 0.395,-0.175 0.424,-0.175Z" style="fill:white;fill-rule:nonzero;"/>
        </g>
        <g transform="matrix(72,0,0,72,572.778,74.3)">
            <path d="M0.747,-0.7L0.747,0L0.553,0L0.287,-0.318L0.287,0L0.057,0L0.057,-0.7L0.251,-0.7L0.517,-0.382L0.517,-0.7L0.747,-0.7Z" style="fill:white;fill-rule:nonzero;"/>
        </g>
    </g>
</svg>
