<?xml version="1.0" encoding="UTF-8" standalone="no"?>
<!DOCTYPE svg PUBLIC "-//W3C//DTD SVG 1.1//EN" "http://www.w3.org/Graphics/SVG/1.1/DTD/svg11.dtd">
<svg width="100%" height="100%" viewBox="0 0 150 100" version="1.1" xmlns="http://www.w3.org/2000/svg" xmlns:xlink="http://www.w3.org/1999/xlink" xml:space="preserve" xmlns:serif="http://www.serif.com/" style="fill-rule:evenodd;clip-rule:evenodd;stroke-linejoin:round;stroke-miterlimit:2;">
    <g transform="matrix(0.204099,0,0,0.204099,0,13.0046)">
        <g transform="matrix(0,8.33333,8.33333,0,301.988,181.959)">
            <rect x="-0.002" y="-7.965" width="7.967" height="7.964" style="fill:rgb(215,25,32);"/>
        </g>
        <g transform="matrix(8.33333,0,0,8.33333,477.427,0)">
            <path d="M0,25.9L0,0L-25.004,0L-25.004,5.384L-5.53,5.384L-5.53,25.9L0,25.9Z" style="fill:rgb(109,110,113);fill-rule:nonzero;"/>
        </g>
        <g transform="matrix(8.33333,0,0,8.33333,388.95,87.3758)">
            <path d="M0,19.763L0,0L-19.333,0L-19.333,5.078L-5.087,5.078L-5.087,19.763L0,19.763Z" style="fill:rgb(109,110,113);fill-rule:nonzero;"/>
        </g>
        <g transform="matrix(8.33333,0,0,8.33333,57.525,305.382)">
            <path d="M0,6.18C-0.32,6.401 -0.753,6.57 -1.3,6.684C-1.848,6.8 -2.307,6.857 -2.677,6.857C-4.115,6.857 -5.178,6.5 -5.868,5.787C-6.559,5.072 -6.903,4.201 -6.903,3.173C-6.903,2.182 -6.522,1.292 -5.76,0.504C-4.997,-0.284 -3.935,-0.677 -2.574,-0.677C-2.208,-0.677 -1.781,-0.622 -1.292,-0.509C-0.805,-0.398 -0.44,-0.265 -0.199,-0.111L-0.474,1.685L-0.989,1.685L-0.989,1.061C-1.126,0.955 -1.333,0.862 -1.609,0.782C-1.885,0.703 -2.202,0.662 -2.56,0.662C-3.264,0.662 -3.822,0.901 -4.231,1.378C-4.64,1.855 -4.846,2.405 -4.85,3.03C-4.854,3.776 -4.67,4.371 -4.299,4.816C-3.928,5.261 -3.351,5.483 -2.566,5.483C-2.334,5.483 -2.141,5.472 -1.987,5.45C-1.833,5.428 -1.706,5.4 -1.607,5.368L-1.607,3.438L-3.049,3.438L-3.049,2.617L0,2.617L0,6.18Z" style="fill:rgb(109,110,113);fill-rule:nonzero;"/>
        </g>
        <g transform="matrix(8.33333,0,0,8.33333,101.027,341.908)">
            <path d="M0,-2.631C0,-2.999 -0.108,-3.274 -0.324,-3.457C-0.539,-3.639 -0.847,-3.731 -1.247,-3.731L-2.065,-3.731L-2.065,-1.541L-1.185,-1.541C-0.818,-1.541 -0.53,-1.64 -0.318,-1.836C-0.106,-2.033 0,-2.298 0,-2.631M3.134,2.373L0.974,2.373L-1.278,-0.754L-2.065,-0.754L-2.065,2.373L-4.009,2.373L-4.009,-5.004L-1.087,-5.004C-0.129,-5.004 0.612,-4.817 1.139,-4.446C1.665,-4.074 1.928,-3.564 1.928,-2.914C1.928,-2.43 1.801,-2.037 1.547,-1.735C1.293,-1.433 0.955,-1.226 0.532,-1.113L3.134,2.373Z" style="fill:rgb(109,110,113);fill-rule:nonzero;"/>
        </g>
        <g transform="matrix(8.33333,0,0,8.33333,176.747,331.09)">
            <path d="M0,0.009C0.007,-0.793 -0.144,-1.393 -0.452,-1.792C-0.761,-2.19 -1.238,-2.392 -1.882,-2.399C-2.5,-2.405 -2.972,-2.216 -3.298,-1.83C-3.624,-1.446 -3.787,-0.831 -3.787,0.009C-3.787,0.796 -3.634,1.392 -3.326,1.799C-3.02,2.205 -2.538,2.408 -1.882,2.408C-1.227,2.408 -0.75,2.211 -0.455,1.818C-0.159,1.425 -0.008,0.822 0,0.009M2.082,0.007C2.086,1.134 1.733,2.043 1.026,2.735C0.319,3.426 -0.651,3.771 -1.882,3.771C-3.098,3.771 -4.063,3.437 -4.773,2.768C-5.485,2.099 -5.84,1.179 -5.84,0.007C-5.84,-1.165 -5.489,-2.086 -4.785,-2.757C-4.082,-3.428 -3.114,-3.762 -1.882,-3.762C-0.608,-3.762 0.369,-3.446 1.052,-2.815C1.735,-2.181 2.078,-1.241 2.082,0.007" style="fill:rgb(109,110,113);fill-rule:nonzero;"/>
        </g>
        <g transform="matrix(8.33333,0,0,8.33333,254.278,320.414)">
            <path d="M0,2.629C0,3.337 -0.261,3.918 -0.784,4.371C-1.306,4.826 -2.111,5.053 -3.198,5.053C-4.265,5.053 -5.046,4.834 -5.54,4.398C-6.034,3.961 -6.28,3.372 -6.28,2.629L-6.28,-2.424L-4.335,-2.424L-4.335,2.663C-4.335,3.004 -4.233,3.274 -4.029,3.471C-3.825,3.668 -3.498,3.766 -3.046,3.766C-2.576,3.766 -2.234,3.657 -2.02,3.439C-1.806,3.222 -1.699,2.876 -1.699,2.399L-1.699,-2.424L0,-2.424L0,2.629Z" style="fill:rgb(109,110,113);fill-rule:nonzero;"/>
        </g>
        <g transform="matrix(8.33333,0,0,8.33333,299.587,342.053)">
            <path d="M0,-2.665C0,-3.031 -0.118,-3.303 -0.354,-3.481C-0.592,-3.659 -0.923,-3.748 -1.35,-3.748L-2.202,-3.748L-2.202,-1.554L-1.298,-1.554C-0.849,-1.554 -0.52,-1.654 -0.312,-1.852C-0.104,-2.05 0,-2.322 0,-2.665M1.928,-2.879C1.928,-2.155 1.669,-1.617 1.152,-1.263C0.636,-0.909 -0.104,-0.733 -1.07,-0.733L-2.202,-0.733L-2.202,2.356L-4.147,2.356L-4.147,-5.021L-1.087,-5.021C-0.16,-5.021 0.574,-4.843 1.115,-4.49C1.657,-4.136 1.928,-3.599 1.928,-2.879" style="fill:rgb(109,110,113);fill-rule:nonzero;"/>
        </g>
        <g transform="matrix(8.33333,0,0,8.33333,366.347,300.216)">
            <path d="M0,7.376L-5.24,7.376L-5.24,0L-0.194,0L-0.194,1.272L-3.307,1.272L-3.307,3.241L-0.068,3.241L-0.068,4.062L-3.307,4.062L-3.307,6.113L0,6.113L0,7.376Z" style="fill:rgb(109,110,113);fill-rule:nonzero;"/>
        </g>
        <g transform="matrix(8.33333,0,0,8.33333,428.505,319.663)">
            <path d="M0,2.708C0,2.334 -0.124,2.057 -0.372,1.877C-0.619,1.699 -0.946,1.609 -1.35,1.609L-2.551,1.609L-2.551,3.808L-1.184,3.808C-0.784,3.808 -0.486,3.712 -0.292,3.52C-0.097,3.328 0,3.057 0,2.708M-0.327,-0.11C-0.327,-0.404 -0.428,-0.644 -0.63,-0.826C-0.832,-1.008 -1.123,-1.099 -1.502,-1.099L-2.551,-1.099L-2.551,0.879L-1.393,0.879C-1.048,0.879 -0.785,0.791 -0.601,0.615C-0.418,0.439 -0.327,0.197 -0.327,-0.11M1.927,2.91C1.927,3.557 1.68,4.074 1.186,4.461C0.693,4.849 0.065,5.042 -0.699,5.042L-4.456,5.042L-4.456,-2.334L-0.772,-2.334C-0.079,-2.334 0.487,-2.168 0.924,-1.837C1.361,-1.505 1.578,-1.056 1.578,-0.49C1.578,-0.031 1.449,0.336 1.19,0.615C0.93,0.894 0.537,1.063 0.011,1.124C0.534,1.194 0.984,1.383 1.361,1.688C1.738,1.994 1.927,2.401 1.927,2.91" style="fill:rgb(109,110,113);fill-rule:nonzero;"/>
        </g>
        <g transform="matrix(8.33333,0,0,8.33333,486.586,341.908)">
            <path d="M0,-2.631C0,-2.999 -0.107,-3.274 -0.324,-3.457C-0.538,-3.639 -0.847,-3.731 -1.246,-3.731L-2.064,-3.731L-2.064,-1.541L-1.184,-1.541C-0.818,-1.541 -0.529,-1.64 -0.317,-1.836C-0.105,-2.033 0,-2.298 0,-2.631M3.135,2.373L0.974,2.373L-1.278,-0.754L-2.064,-0.754L-2.064,2.373L-4.009,2.373L-4.009,-5.004L-1.086,-5.004C-0.13,-5.004 0.612,-4.817 1.139,-4.446C1.665,-4.074 1.929,-3.564 1.929,-2.914C1.929,-2.43 1.801,-2.037 1.548,-1.735C1.293,-1.433 0.956,-1.226 0.533,-1.113L3.135,2.373Z" style="fill:rgb(109,110,113);fill-rule:nonzero;"/>
        </g>
        <g transform="matrix(-8.33333,0,0,8.33333,2143.14,-6239.37)">
            <rect x="193.029" y="784.752" width="1.945" height="7.375" style="fill:rgb(109,110,113);"/>
        </g>
        <g transform="matrix(8.33333,0,0,8.33333,582.847,316.105)">
            <path d="M0,3.505L-1.191,1.045L-2.374,3.505L0,3.505ZM3.092,5.469L0.98,5.469L0.368,4.231L-2.676,4.231L-3.216,5.469L-5.138,5.469L-1.34,-1.964L-0.733,-1.964L3.092,5.469Z" style="fill:rgb(109,110,113);fill-rule:nonzero;"/>
        </g>
        <g transform="matrix(8.33333,0,0,8.33333,668.035,300.216)">
            <path d="M0,7.376L-0.847,7.376L-4.85,3.13L-4.85,7.376L-6.704,7.376L-6.704,0L-5.857,0L-1.854,4.228L-1.854,0L0,0L0,7.376Z" style="fill:rgb(109,110,113);fill-rule:nonzero;"/>
        </g>
        <g transform="matrix(8.33333,0,0,8.33333,718.869,330.945)">
            <path d="M0,0C0,-0.816 -0.179,-1.423 -0.539,-1.819C-0.898,-2.216 -1.471,-2.415 -2.258,-2.415L-2.762,-2.415L-2.762,2.416L-2.144,2.416C-1.383,2.416 -0.836,2.216 -0.501,1.818C-0.167,1.419 0,0.813 0,0M1.928,0C1.928,1.21 1.603,2.127 0.955,2.752C0.307,3.376 -0.738,3.688 -2.179,3.688L-4.708,3.688L-4.708,-3.688L-2.288,-3.688C-0.857,-3.688 0.202,-3.372 0.893,-2.741C1.582,-2.11 1.928,-1.197 1.928,0" style="fill:rgb(109,110,113);fill-rule:nonzero;"/>
        </g>
    </g>
</svg>
