<svg clip-rule="evenodd" fill-rule="evenodd" stroke-linejoin="round" stroke-miterlimit="2" viewBox="0 0 273 75" xmlns="http://www.w3.org/2000/svg" xmlns:xlink="http://www.w3.org/1999/xlink"><clipPath id="a"><path clip-rule="evenodd" d="m0 0h218.369v59.811h-218.369z"/></clipPath><g fill-rule="nonzero" transform="matrix(1.25 0 0 -1.25 0 74.7643)"><path d="m0 0v4.353l-12.794.023v-4.375l3.424-2.211-3.424-2.164v-4.375l12.794-.023v4.354h-7.376l-.024.042 3.127 2.167-3.126 2.165.025.044z" fill="#ea530d" fill-opacity=".98" transform="translate(21.4778 46.3509)"/><g clip-path="url(#a)"><path d="m0 0v-21.761c0-6.009-4.775-10.898-10.644-10.898s-10.644 4.889-10.644 10.898v21.761h-4.424v-21.761c0-8.507 6.759-15.429 15.068-15.429 8.308 0 15.068 6.922 15.068 15.429v21.761z" fill="#ea530d" fill-opacity=".99" transform="translate(25.7122 50.7044)"/><path d="m0 55.08h30.136v4.375h-30.136z" fill="#fff"/><path d="m0 0h-6.41v-4.375h6.41c1.18 0 2.137-.98 2.137-2.188s-.957-2.187-2.137-2.187h-2.136v-4.376h2.136c3.54 0 6.41 2.938 6.41 6.563s-2.87 6.563-6.41 6.563" fill="#ea530d" fill-opacity=".99" transform="translate(15.0681 35.391)"/><g fill="#fff"><path d="m47.338.05h30.378v4.522h-30.378z"/><path d="m.087-.723h.103v.456c0 .073.013.126.04.159s.07.049.128.049.098-.015.122-.046.036-.084.036-.158v-.46h.09v.458c0 .099-.02.171-.061.216-.04.045-.105.067-.193.067-.091 0-.157-.023-.2-.07-.043-.046-.065-.118-.065-.216z" transform="matrix(7.04949962 0 0 -7.2181 84.1563 0)"/><path d="m.093 0v-.723h.142l.201.559.206-.559h.127v.723h-.096v-.588l-.199.54h-.099l-.194-.541v.589z" transform="matrix(7.04949962 0 0 -7.2181 89.040692 0)"/><path d="m.093 0v-.723h.219c.069 0 .122.016.159.046.037.031.056.075.056.134 0 .096-.049.164-.146.205l.241.338h-.126l-.205-.306h-.096v.306zm.102-.382h.033c.129 0 .193-.051.193-.152 0-.075-.054-.112-.162-.112h-.064z" transform="matrix(7.04949962 0 0 -7.2181 95.112661 0)"/><path d="m.108-.292c0-.046.017-.086.051-.119s.074-.05.121-.05c.048 0 .088.017.122.05.033.034.05.074.05.122 0 .047-.017.088-.05.121-.034.034-.074.051-.121.051-.048 0-.089-.017-.123-.051-.033-.033-.05-.075-.05-.124z" transform="matrix(7.04949962 0 0 -7.2181 101.800705 0)"/><path d="m.403.018c-.112 0-.199-.033-.26-.099-.062-.066-.092-.159-.092-.28 0-.12.031-.214.093-.28.063-.067.15-.1.264-.1.064 0 .14.011.227.032v.096c-.099-.034-.175-.051-.229-.051-.078 0-.139.026-.182.08-.043.053-.064.127-.064.224 0 .092.023.165.069.218.045.053.108.08.188.08.068 0 .141-.021.219-.063v.088c-.071.037-.149.055-.233.055z" transform="matrix(7.04949962 0 0 -7.2181 107.982751 0)"/><path d="m.093 0v-.723h.101l.364.558v-.558h.088v.723h-.101l-.364-.558v.558z" transform="matrix(7.04949962 0 0 -7.2181 112.860297 0)"/><path d="m.093 0v-.723h.219c.069 0 .122.016.159.046.037.031.056.075.056.134 0 .096-.049.164-.146.205l.241.338h-.126l-.205-.306h-.096v.306zm.102-.382h.033c.129 0 .193-.051.193-.152 0-.075-.054-.112-.162-.112h-.064z" transform="matrix(7.04949962 0 0 -7.2181 118.06824 0)"/><path d="m.235.018c-.049 0-.111-.011-.186-.032v-.101c.081.038.148.056.201.056.04 0 .072-.01.097-.031s.037-.049.037-.084c0-.028-.008-.052-.024-.072s-.046-.042-.089-.067l-.05-.028c-.062-.035-.105-.069-.13-.1-.026-.031-.038-.067-.038-.108 0-.056.02-.102.06-.138.041-.036.092-.054.155-.054.055 0 .114.01.176.028v.094c-.076-.03-.133-.045-.171-.045-.035 0-.064.009-.087.028-.024.019-.035.043-.035.072 0 .024.008.045.025.064.017.018.048.04.093.066l.052.029c.062.036.106.069.131.101.024.031.037.069.037.114 0 .062-.023.113-.07.151-.046.038-.108.057-.184.057z" transform="matrix(7.04949962 0 0 -7.2181 122.52583 0)"/><path d="m.108-.292c0-.046.017-.086.051-.119s.074-.05.121-.05c.048 0 .088.017.122.05.033.034.05.074.05.122 0 .047-.017.088-.05.121-.034.034-.074.051-.121.051-.048 0-.089-.017-.123-.051-.033-.033-.05-.075-.05-.124z" transform="matrix(7.04949962 0 0 -7.2181 128.55298 0)"/><path d="m.122.003v-.086c.047.019.093.029.136.029.048 0 .085-.014.112-.042.028-.028.041-.067.041-.116 0-.108-.075-.163-.224-.163-.017 0-.035.002-.053.004v-.352h.366v.084h-.282v.191c.093 0 .165.021.218.064.052.042.078.101.078.177 0 .07-.024.125-.071.165-.048.04-.113.06-.197.06-.037 0-.078-.005-.124-.015z" transform="matrix(7.04949962 0 0 -7.2181 134.735124 0)"/><path d="m.122.003v-.086c.047.019.093.029.136.029.048 0 .085-.014.112-.042.028-.028.041-.067.041-.116 0-.108-.075-.163-.224-.163-.017 0-.035.002-.053.004v-.352h.366v.084h-.282v.191c.093 0 .165.021.218.064.052.042.078.101.078.177 0 .07-.024.125-.071.165-.048.04-.113.06-.197.06-.037 0-.078-.005-.124-.015z" transform="matrix(7.04949962 0 0 -7.2181 139.192616 0)"/><path d="m.15 0v-.072h.145v-.571l-.145.037v-.075l.242-.06v.669h.144v.072z" transform="matrix(7.04949962 0 0 -7.2181 143.650205 0)"/><path d="m.172-.375c.046-.059.104-.089.173-.089.063 0 .115.021.155.063s.061.095.061.161c0 .075-.023.137-.068.185-.045.049-.102.073-.172.073-.079 0-.142-.032-.187-.096s-.067-.153-.067-.267c0-.126.026-.223.077-.292.052-.07.125-.104.218-.104.043 0 .097.009.161.027v.084c-.068-.026-.123-.039-.167-.039-.123 0-.184.098-.184.294zm.292.156c0-.054-.012-.097-.037-.129-.025-.031-.059-.047-.102-.047-.041 0-.076.014-.105.041-.03.028-.044.061-.044.099 0 .061.014.109.042.146.027.036.064.055.11.055.041 0 .074-.015.099-.045s.037-.07.037-.12z" transform="matrix(7.04949962 0 0 -7.2181 148.107795 0)"/><path d="m.108-.292c0-.046.017-.086.051-.119s.074-.05.121-.05c.048 0 .088.017.122.05.033.034.05.074.05.122 0 .047-.017.088-.05.121-.034.034-.074.051-.121.051-.048 0-.089-.017-.123-.051-.033-.033-.05-.075-.05-.124z" transform="matrix(7.04949962 0 0 -7.2181 154.795839 0)"/><path d="m.235.018c-.049 0-.111-.011-.186-.032v-.101c.081.038.148.056.201.056.04 0 .072-.01.097-.031s.037-.049.037-.084c0-.028-.008-.052-.024-.072s-.046-.042-.089-.067l-.05-.028c-.062-.035-.105-.069-.13-.1-.026-.031-.038-.067-.038-.108 0-.056.02-.102.06-.138.041-.036.092-.054.155-.054.055 0 .114.01.176.028v.094c-.076-.03-.133-.045-.171-.045-.035 0-.064.009-.087.028-.024.019-.035.043-.035.072 0 .024.008.045.025.064.017.018.048.04.093.066l.052.029c.062.036.106.069.131.101.024.031.037.069.037.114 0 .062-.023.113-.07.151-.046.038-.108.057-.184.057z" transform="matrix(7.04949962 0 0 -7.2181 160.977983 0)"/><path d="m.459-.276-.123-.312-.123.312zm.109.276-.079-.2h-.306l-.079.2h-.096l.287-.723h.101l.283.723z" transform="matrix(7.04949962 0 0 -7.2181 164.774581 0)"/><path d="m.093-.723h.103v.723h-.103z" transform="matrix(7.04949962 0 0 -7.2181 169.638356 0)"/><path d="m.093 0v-.723h.101l.364.558v-.558h.088v.723h-.101l-.364-.558v.558z" transform="matrix(7.04949962 0 0 -7.2181 171.669185 0)"/><path d="m.265 0v-.646h-.256v-.077h.615v.077h-.256v.646z" transform="matrix(7.04949962 0 0 -7.2181 176.877227 0)"/><path d="m.072-.325h.434v.072h-.434z" transform="matrix(7.04949962 0 0 -7.2181 181.334718 0)"/><path d="m.093 0v-.723h.404v.077h-.301v.232h.252v.076h-.252v.261h.322v.077z" transform="matrix(7.04949962 0 0 -7.2181 185.413566 0)"/><path d="m.265 0v-.646h-.256v-.077h.615v.077h-.256v.646z" transform="matrix(7.04949962 0 0 -7.2181 189.234189 0)"/><path d="m.093-.723h.103v.723h-.103z" transform="matrix(7.04949962 0 0 -7.2181 193.691584 0)"/><path d="m.093 0v-.723h.404v.077h-.301v.232h.252v.076h-.252v.261h.322v.077z" transform="matrix(7.04949962 0 0 -7.2181 195.722999 0)"/><path d="m.093 0v-.723h.101l.364.558v-.558h.088v.723h-.101l-.364-.558v.558z" transform="matrix(7.04949962 0 0 -7.2181 199.543622 0)"/><path d="m.093 0v-.723h.101l.364.558v-.558h.088v.723h-.101l-.364-.558v.558z" transform="matrix(7.04949962 0 0 -7.2181 204.752054 0)"/><path d="m.093 0v-.723h.404v.077h-.301v.232h.252v.076h-.252v.261h.322v.077z" transform="matrix(7.04949962 0 0 -7.2181 209.959509 0)"/><path d="m0 0h5.339v-14.948h4.004v-4.421h-9.343z" transform="translate(47.5115 59.4619)"/><path d="m0 0h1.477l-.739 7.184zm7.837-7.766h-5.566l-.369 3.432h-2.357l-.34-3.432h-5.566l3.748 19.37h6.702z" transform="translate(65.0056 47.8584)"/><path d="m0 0c.54 0 .795.291.795.757v2.035c0 .523-.284.757-.795.757h-1.25v-3.549zm-.227 7.504c.482 0 .681.262.681.726v2.037c0 .407-.199.669-.681.669h-1.023v-3.432zm-6.191 7.648h7.639c3.01 0 4.288-1.541 4.288-3.984v-2.007c0-1.425-.454-2.675-1.903-3.315 1.619-.349 2.471-1.658 2.471-3.635v-1.891c0-2.762-1.306-4.537-4.827-4.537h-7.668z" transform="translate(81.2507 44.3095)"/><path d="m0 0v9.074c0 .698-.284 1.134-1.022 1.134-.739 0-1.023-.436-1.023-1.134v-9.074c0-.697.284-1.134 1.023-1.134.738 0 1.022.437 1.022 1.134m-7.383.523v8.028c0 3.606 1.703 6.02 6.361 6.02 4.657 0 6.36-2.414 6.36-6.02v-8.028c0-3.606-1.703-6.019-6.36-6.019-4.658 0-6.361 2.413-6.361 6.019" transform="translate(96.8996 45.2402)"/><path d="m0 0c.596 0 .88.291.88.901v2.792c0 .612-.284.902-.88.902h-1.164v-4.595zm-.738-4.188h-.426v-6.195h-5.282v19.369h7.667c3.72 0 4.998-1.773 4.998-4.885v-3.548c0-1.862-.54-3.083-1.761-3.839l2.386-7.097h-5.594z" transform="translate(111.241 50.4755)"/><path d="m0 0h1.477l-.739 7.184zm7.838-7.766h-5.567l-.369 3.432h-2.356l-.341-3.432h-5.565l3.748 19.37h6.702z" transform="translate(125.953 47.8584)"/><path d="m0 0h-3.095v4.479h11.53v-4.479h-3.096v-14.891h-5.339z" transform="translate(136.973 54.9834)"/><path d="m0 0v9.074c0 .698-.284 1.134-1.022 1.134-.739 0-1.023-.436-1.023-1.134v-9.074c0-.697.284-1.134 1.023-1.134.738 0 1.022.437 1.022 1.134m-7.383.523v8.028c0 3.606 1.703 6.02 6.361 6.02 4.657 0 6.36-2.414 6.36-6.02v-8.028c0-3.606-1.703-6.019-6.36-6.019-4.658 0-6.361 2.413-6.361 6.019" transform="translate(154.582 45.2402)"/><path d="m162.535 40.093h5.338v19.369h-5.338z"/><path d="m0 0c.597 0 .881.291.881.901v2.792c0 .612-.284.902-.881.902h-1.164v-4.595zm-.738-4.188h-.426v-6.195h-5.281v19.369h7.667c3.719 0 4.997-1.773 4.997-4.885v-3.548c0-1.862-.539-3.083-1.76-3.839l2.385-7.097h-5.594z" transform="translate(177.216 50.4755)"/><path d="m0 0h10.337v-4.42h-4.998v-2.996h4.515v-4.421h-4.515v-3.111h5.025v-4.421h-10.364z" transform="translate(186.136 59.4619)"/></g><g fill="#ea530d" fill-opacity=".99"><path d="m0 0h5.339v-7.562h2.13v7.562h5.338v-19.369h-5.338v7.213h-2.13v-7.213h-5.339z" transform="translate(47.5115 33.3857)"/><path d="m0 0v14.222h5.339v-14.25c0-.669.284-1.048 1.022-1.048s1.022.379 1.022 1.018v14.28h5.339v-14.222c0-3.257-1.903-5.496-6.361-5.496s-6.361 2.239-6.361 5.496" transform="translate(63.1037 19.164)"/><path d="m0 0c.54 0 .795.291.795.757v2.035c0 .523-.284.757-.795.757h-1.25v-3.549zm-.227 7.504c.482 0 .681.262.681.726v2.037c0 .407-.199.669-.681.669h-1.023v-3.432zm-6.191 7.648h7.639c3.01 0 4.288-1.541 4.288-3.984v-2.007c0-1.425-.454-2.675-1.903-3.315 1.619-.349 2.471-1.658 2.471-3.635v-1.891c0-2.762-1.306-4.537-4.827-4.537h-7.668z" transform="translate(85.0285 18.2334)"/><path d="m0 0h10.336v-4.42h-4.997v-2.996h4.515v-4.421h-4.515v-3.111h5.026v-4.421h-10.365z" transform="translate(93.4358 33.3857)"/><path d="m0 0c.596 0 .88.291.88.901v2.792c0 .612-.284.902-.88.902h-1.164v-4.595zm-.738-4.188h-.426v-6.195h-5.282v19.369h7.667c3.72 0 4.998-1.773 4.998-4.885v-3.548c0-1.862-.54-3.083-1.761-3.839l2.386-7.097h-5.594z" transform="translate(112.748 24.3994)"/><path d="m0 0h-3.095v4.479h11.53v-4.479h-3.095v-14.891h-5.34z" transform="translate(123.767 28.9072)"/><path d="m0 0c.823 0 1.846.146 2.755.319l.369-4.478c-1.051-.262-3.238-.465-4.316-.465-4.175 0-5.85 1.978-5.85 5.816v8.434c0 3.84 1.675 5.817 5.85 5.817 1.078 0 3.265-.204 4.316-.465l-.369-4.479c-.909.175-1.932.319-2.755.319-1.222 0-1.676-.523-1.676-1.686v-7.445c0-1.164.454-1.687 1.676-1.687" transform="translate(147.198 18.2919)"/><path d="m0 0v14.222h5.339v-14.25c0-.669.284-1.048 1.022-1.048.739 0 1.022.379 1.022 1.018v14.28h5.339v-14.222c0-3.257-1.903-5.496-6.361-5.496-4.459 0-6.361 2.239-6.361 5.496" transform="translate(152.652 19.164)"/><path d="m0 0c.596 0 .88.291.88.901v2.792c0 .612-.284.902-.88.902h-1.164v-4.595zm-.738-4.188h-.426v-6.195h-5.283v19.369h7.668c3.719 0 4.998-1.773 4.998-4.885v-3.548c0-1.862-.54-3.083-1.762-3.839l2.387-7.097h-5.595z" transform="translate(174.605 24.3994)"/><path d="m183.58 14.017h5.339v19.369h-5.339z"/><path d="m0 0h10.336v-4.42h-4.997v-2.996h4.515v-4.421h-4.515v-3.111h5.026v-4.421h-10.365z" transform="translate(191.816 33.3857)"/><path d="m0 0h5.226l3.294-7.969v7.969h5.168v-19.369h-5.225l-3.294 7.969v-7.969h-5.169z" transform="translate(204.681 33.3857)"/></g></g></g></svg>