<svg clip-rule="evenodd" fill-rule="evenodd" stroke-linejoin="round" stroke-miterlimit="2" viewBox="0 0 493 280" xmlns="http://www.w3.org/2000/svg"><g fill="#fff"><path d="m0-9.031h2.284l2.206 3.793 2.206-3.793h2.284v9.031h-1.832v-6.476l-2.013 3.38h-1.29l-2.013-3.38v6.476h-1.832z" fill-rule="nonzero" transform="matrix(4.16667 0 0 4.16667 0 113.726)"/><path d="m47.95303219 76.09346847h7.63333944v37.62919677h-7.63333944z" stroke-width="4.16667"/><path d="m0-9.031h2.348l4.039 6.528v-6.528h1.832v9.031h-2.348l-4.039-6.528v6.528h-1.832z" fill-rule="nonzero" transform="matrix(4.16667 0 0 4.16667 66.1779 113.726)"/><path d="m111.01558264 76.09346847h7.63333944v37.62919677h-7.63333944z" stroke-width="4.16667"/><path d="m0 4.077c.542.697 1.264 1.11 2 1.11.722 0 1.161-.387 1.161-1.033 0-1.664-4.103-1.212-4.103-4.27 0-1.432 1.187-2.619 2.916-2.619 1.355 0 2.387.606 3.161 1.522l-1.342 1.213c-.529-.684-1.122-1.135-1.806-1.135-.645 0-1.071.413-1.071.954 0 1.639 4.103 1.174 4.103 4.271-.026 1.703-1.355 2.722-3.006 2.722-1.523 0-2.542-.554-3.342-1.509z" fill-rule="nonzero" transform="matrix(4.16667 0 0 4.16667 131.388 86.4183)"/><path d="m0-9.031h7.406v1.664h-2.787v7.367h-1.832v-7.367h-2.787z" fill-rule="nonzero" transform="matrix(4.16667 0 0 4.16667 156.227 113.726)"/><path d="m0-11.547h1.884l1.458 1.742h-1.678zm-.155 2.516h5.264v1.522h-3.432v2.142h2.916v1.523h-2.916v2.322h3.432v1.522h-5.264z" fill-rule="nonzero" transform="matrix(4.16667 0 0 4.16667 194.504 113.727)"/><path d="m0-5.986v2.335h1.032c.774 0 1.226-.451 1.226-1.187 0-.684-.452-1.148-1.226-1.148zm-1.832-1.523h2.761c1.987 0 3.212 1.02 3.212 2.697 0 1.097-.528 1.91-1.457 2.335l2.825 4h-2.154l-2.413-3.651h-.942v3.651h-1.832z" fill-rule="nonzero" transform="matrix(4.16667 0 0 4.16667 232.351 107.383)"/><path d="m0-9.031h5.264v1.523h-3.432v2.141h2.916v1.523h-2.916v2.322h3.432v1.522h-5.264z" fill-rule="nonzero" transform="matrix(4.16667 0 0 4.16667 260.198 113.726)"/><path d="m0-5.703v5.703h1.742c1.677 0 2.89-1.252 2.89-2.852 0-1.612-1.213-2.851-2.89-2.851zm-1.832-1.664h3.548c2.864 0 4.799 2.077 4.799 4.515 0 2.439-1.935 4.516-4.799 4.516h-3.548z" fill-rule="nonzero" transform="matrix(4.16667 0 0 4.16667 7.63417 161.75)"/><path d="m0-9.031h5.264v1.523h-3.432v2.141h2.916v1.523h-2.916v2.322h3.432v1.522h-5.264z" fill-rule="nonzero" transform="matrix(4.16667 0 0 4.16667 42.2017 168.681)"/><path d="m0-9.031h1.832v7.367h3.432v1.664h-5.264z" fill-rule="nonzero" transform="matrix(4.16667 0 0 4.16667 87.0904 168.681)"/><path d="m-.714 2.745h3.893l.554-1.774-3.993.32z" fill-rule="nonzero" transform="matrix(1.24257 -3.97708 -3.97708 -1.24257 119.27 147.105)"/><path d="m0-8.063 1.458-1.742h1.884l-1.678 1.742zm-1.781.774h5.265v1.523h-3.432v2.141h2.915v1.523h-2.915v2.322h3.432v1.522h-5.265z" fill-rule="nonzero" transform="matrix(4.16667 0 0 4.16667 133.485 161.423)"/><path d="m0 3.638 1.445 1.109c-.826 1.123-2.168 1.846-3.806 1.846-2.851 0-4.8-2.194-4.8-4.774 0-2.581 1.949-4.774 4.8-4.774 1.638 0 2.98.735 3.806 1.832l-1.445 1.123c-.516-.736-1.329-1.239-2.361-1.239-1.703 0-2.916 1.329-2.916 3.058s1.213 3.057 2.916 3.057c1.032 0 1.845-.503 2.361-1.238" fill-rule="nonzero" transform="matrix(4.16667 0 0 4.16667 182.676 142.29)"/><path d="m0 0c0-1.729-1.213-3.058-2.903-3.058-1.703 0-2.916 1.329-2.916 3.058s1.213 3.058 2.916 3.058c1.69 0 2.903-1.329 2.903-3.058m1.884 0c0 2.58-1.949 4.774-4.787 4.774-2.851 0-4.8-2.194-4.8-4.774s1.949-4.774 4.8-4.774c2.838 0 4.787 2.194 4.787 4.774" fill-rule="nonzero" transform="matrix(4.16667 0 0 4.16667 223.963 149.868)"/><path d="m0-9.031h2.348l4.039 6.528v-6.528h1.832v9.031h-2.349l-4.038-6.528v6.528h-1.832z" fill-rule="nonzero" transform="matrix(4.16667 0 0 4.16667 239.178 168.681)"/><path d="m0 0c0-1.729-1.213-3.058-2.903-3.058-1.703 0-2.916 1.329-2.916 3.058s1.213 3.058 2.916 3.058c1.69 0 2.903-1.329 2.903-3.058m1.884 0c0 2.58-1.949 4.774-4.787 4.774-2.851 0-4.8-2.194-4.8-4.774s1.949-4.774 4.8-4.774c2.838 0 4.787 2.194 4.787 4.774" fill-rule="nonzero" transform="matrix(4.16667 0 0 4.16667 312.882 149.868)"/><path d="m0-9.031h2.284l2.206 3.793 2.206-3.793h2.284v9.031h-1.832v-6.476l-2.013 3.38h-1.29l-2.013-3.38v6.476h-1.832z" fill-rule="nonzero" transform="matrix(4.16667 0 0 4.16667 328.097 168.681)"/><path d="m376.049128 131.05509117h7.63333944v37.62919677h-7.63333944z" stroke-width="4.16667"/><path d="m0-9.031h5.264v1.523h-3.432v2.141h2.916v1.523h-2.916v2.322h3.432v1.522h-5.264z" fill-rule="nonzero" transform="matrix(4.16667 0 0 4.16667 394.275 168.681)"/><path d="m0-5.703v5.703h1.742c1.677 0 2.89-1.252 2.89-2.851 0-1.613-1.213-2.852-2.89-2.852zm-1.832-1.664h3.548c2.864 0 4.799 2.077 4.799 4.516 0 2.438-1.935 4.515-4.799 4.515h-3.548z" fill-rule="nonzero" transform="matrix(4.16667 0 0 4.16667 7.63417 216.705)"/><path d="m0-9.031h5.264v1.522h-3.432v2.142h2.916v1.523h-2.916v2.322h3.432v1.522h-5.264z" fill-rule="nonzero" transform="matrix(4.16667 0 0 4.16667 42.2017 223.637)"/><path d="m0 4.077c.542.697 1.264 1.11 2 1.11.722 0 1.161-.387 1.161-1.033 0-1.664-4.103-1.212-4.103-4.27 0-1.432 1.187-2.619 2.916-2.619 1.355 0 2.387.606 3.161 1.522l-1.342 1.213c-.529-.684-1.122-1.135-1.806-1.135-.645 0-1.071.413-1.071.954 0 1.639 4.103 1.175 4.103 4.271-.026 1.703-1.355 2.722-3.006 2.722-1.523 0-2.542-.555-3.342-1.509z" fill-rule="nonzero" transform="matrix(4.16667 0 0 4.16667 75.21 196.329)"/><path d="m0-9.031h5.264v1.522h-3.432v2.142h2.916v1.523h-2.916v3.844h-1.832z" fill-rule="nonzero" transform="matrix(4.16667 0 0 4.16667 118.217 223.637)"/><path d="m146.9239447 186.01088054h7.63333944v37.62919677h-7.63333944z" stroke-width="4.16667"/><path d="m0-9.031h2.348l4.038 6.528v-6.528h1.832v9.031h-2.348l-4.038-6.528v6.528h-1.832z" fill-rule="nonzero" transform="matrix(4.16667 0 0 4.16667 165.15 223.637)"/><path d="m0 1.213-1.238-3.393-1.239 3.393zm-2.438-5.122h2.399l3.419 9.031h-1.948l-.864-2.348h-3.613l-.864 2.348h-1.948z" fill-rule="nonzero" transform="matrix(4.16667 0 0 4.16667 229.661 202.295)"/><path d="m0-9.031h2.348l4.038 6.528v-6.528h1.833v9.031h-2.349l-4.038-6.528v6.528h-1.832z" fill-rule="nonzero" transform="matrix(4.16667 0 0 4.16667 249.607 223.637)"/><path d="m0 3.638 1.445 1.109c-.826 1.123-2.168 1.846-3.806 1.846-2.851 0-4.8-2.194-4.8-4.774 0-2.581 1.949-4.774 4.8-4.774 1.638 0 2.98.736 3.806 1.832l-1.445 1.123c-.516-.736-1.329-1.239-2.361-1.239-1.703 0-2.916 1.329-2.916 3.058s1.213 3.058 2.916 3.058c1.032 0 1.845-.504 2.361-1.239" fill-rule="nonzero" transform="matrix(4.16667 0 0 4.16667 321.053 197.245)"/><path d="m0-9.031h5.264v1.522h-3.432v2.142h2.916v1.523h-2.916v2.322h3.432v1.522h-5.264z" fill-rule="nonzero" transform="matrix(4.16667 0 0 4.16667 333.741 223.637)"/><path d="m0 4.077c.542.697 1.264 1.11 2 1.11.722 0 1.161-.387 1.161-1.033 0-1.664-4.103-1.212-4.103-4.27 0-1.432 1.187-2.619 2.916-2.619 1.355 0 2.387.606 3.161 1.522l-1.342 1.213c-.529-.684-1.122-1.135-1.806-1.135-.645 0-1.071.413-1.071.954 0 1.639 4.103 1.175 4.103 4.271-.026 1.703-1.355 2.722-3.006 2.722-1.523 0-2.542-.555-3.342-1.509z" fill-rule="nonzero" transform="matrix(4.16667 0 0 4.16667 366.749 196.329)"/><path d="m0-9.031h5.264v1.522h-3.432v2.142h2.916v1.523h-2.916v2.322h3.432v1.522h-5.264z" fill-rule="nonzero" transform="matrix(4.16667 0 0 4.16667 0 278.592)"/><path d="m0-9.031h7.406v1.664h-2.787v7.367h-1.832v-7.367h-2.787z" fill-rule="nonzero" transform="matrix(4.16667 0 0 4.16667 27.7942 278.592)"/><path d="m0-5.703v5.703h1.742c1.677 0 2.89-1.252 2.89-2.852 0-1.612-1.213-2.851-2.89-2.851zm-1.832-1.664h3.548c2.864 0 4.799 2.077 4.799 4.515 0 2.439-1.935 4.516-4.799 4.516h-3.548z" fill-rule="nonzero" transform="matrix(4.16667 0 0 4.16667 87.0908 271.66)"/><path d="m0-9.031h5.264v1.522h-3.432v2.142h2.916v1.523h-2.916v2.322h3.432v1.522h-5.264z" fill-rule="nonzero" transform="matrix(4.16667 0 0 4.16667 121.658 278.592)"/><path d="m0-9.031h1.832v7.367h3.432v1.664h-5.264z" fill-rule="nonzero" transform="matrix(4.16667 0 0 4.16667 166.547 278.592)"/><path d="m0 1.213-1.239-3.393-1.238 3.393zm-2.439-5.122h2.4l3.419 9.031h-1.948l-.864-2.348h-3.613l-.864 2.348h-1.949z" fill-rule="nonzero" transform="matrix(4.16667 0 0 4.16667 216.544 257.251)"/><path d="m0-5.987v2.335h1.032c.774 0 1.226-.451 1.226-1.187 0-.684-.452-1.148-1.226-1.148zm-1.832-1.522h2.761c1.987 0 3.213 1.019 3.213 2.696 0 1.097-.529 1.91-1.458 2.335l2.825 4h-2.154l-2.413-3.651h-.942v3.651h-1.832z" fill-rule="nonzero" transform="matrix(4.16667 0 0 4.16667 258.153 272.252)"/><path d="m0-9.031h5.264v1.522h-3.432v2.142h2.916v1.523h-2.916v2.322h3.432v1.522h-5.264z" fill-rule="nonzero" transform="matrix(4.16667 0 0 4.16667 286.001 278.592)"/><path d="m0-9.031h1.832v7.367h3.432v1.664h-5.264z" fill-rule="nonzero" transform="matrix(4.16667 0 0 4.16667 316.859 278.592)"/><path d="m0 1.213-1.239-3.393-1.238 3.393zm-2.439-5.122h2.4l3.419 9.031h-1.948l-.864-2.348h-3.613l-.864 2.348h-1.949z" fill-rule="nonzero" transform="matrix(4.16667 0 0 4.16667 366.856 257.251)"/><path d="m0-9.031h2.348l4.039 6.528v-6.528h1.832v9.031h-2.349l-4.038-6.528v6.528h-1.832z" fill-rule="nonzero" transform="matrix(4.16667 0 0 4.16667 386.8 278.592)"/><path d="m0 3.638 1.445 1.109c-.826 1.123-2.168 1.846-3.806 1.846-2.851 0-4.8-2.194-4.8-4.774 0-2.581 1.949-4.774 4.8-4.774 1.638 0 2.98.736 3.806 1.832l-1.445 1.123c-.516-.736-1.329-1.239-2.361-1.239-1.703 0-2.916 1.329-2.916 3.058s1.213 3.058 2.916 3.058c1.032 0 1.845-.504 2.361-1.239" fill-rule="nonzero" transform="matrix(4.16667 0 0 4.16667 458.247 252.2)"/><path d="m0-9.031h5.264v1.522h-3.432v2.142h2.916v1.523h-2.916v2.322h3.432v1.522h-5.264z" fill-rule="nonzero" transform="matrix(4.16667 0 0 4.16667 470.935 278.592)"/><path d="m210.909 23.32h66.807v51.703h-66.807z" transform="matrix(2.06209 0 0 .968916 -434.837 -22.5947)"/></g><path d="m0 5.205c-.023-.023.068 0 .091-.045h-.182c-.023 0-.023-.023-.023-.046-.113.023-.25.068-.363.091-.159.045-.295.159-.477.204-.25.091-.455.296-.727.387-.023 0-.023-.023-.023-.046.023-.068.114-.091.159-.159 0-.022 0-.045-.023-.045.182-.25.432-.386.659-.591v-.068c.068-.091.182-.136.227-.25.023-.068.114-.159.228-.204-.023-.023-.069-.023-.069-.069-.09 0-.181.046-.272-.022.042-.043.091-.066.142-.081-.019-.004-.037-.014-.051-.033-.023-.045.044-.096.113-.114.091-.022.205-.022.273-.09-.159-.023-.341.045-.5-.046.114-.295.295-.545.568-.681.023 0 .068 0 .068.022 0 .114-.068.205-.182.227.182.046.364.046.546.137-.023.045-.068.023-.091.023.113.068.25.022.363.113-.068.068-.136 0-.204 0 .704.205 1.454.364 2.045.818-.5.25-1.023.364-1.568.477-.068 0-.114 0-.182-.023 0 .023 0 .069-.022.069-.091 0-.159 0-.228.045-.091.045-.227.068-.295 0m-.465 1.58c-.002.002-.004.003-.006.004-.085.06-.17.121-.259.173-.097.057-.199.1-.3.148-.001-.002-.002-.004-.003-.006-.008-.011-.024-.017-.038-.009-.086.046-.16.108-.229.174-.011.01-.021.02-.032.031l-.003.003c-.011.011-.022.022-.033.032-.001.002-.002.003-.003.004s-.001.001-.002.002c-.016.016-.031.032-.049.053-.011.014-.015.022-.031.032-.014.009-.053.009-.049-.017v-.004c-.013.007-.027.014-.04.02s-.024.013-.036.02c-.005-.002-.01-.003-.015-.003-.006.001-.012.002-.017.006-.027.022-.055.045-.082.069-.047.043-.092.09-.132.14 0 .001-.001.002-.002.002-.001.002-.003.005-.004.007-.002.003-.005.005-.007.008-.002.004-.005.007-.007.01-.001.001-.002.002-.002.003-.006.007-.011.015-.016.022 0 .001 0 .001-.001.002-.003.004-.01.007-.018.009-.003-.005-.006-.009-.009-.014-.003-.004-.005-.007-.007-.011-.007-.012-.013-.024-.019-.036 0-.001 0-.001-.001-.002-.002-.004-.003-.007-.005-.011.025-.026.048-.054.071-.082l.005-.005c.008-.01.016-.02.023-.029.013-.017.026-.033.038-.049.005-.006.01-.012.014-.018.025-.033.049-.064.071-.096.001-.001.001-.002.002-.002.003-.005.007-.01.01-.015.011-.016.021-.032.031-.049.009-.014.017-.03.025-.045 0-.001.001-.002.002-.003 0-.002.001-.003.002-.005.001-.003.003-.006.004-.009.008-.017.015-.034.021-.052.001-.002.002-.004.002-.006.002-.005.004-.01.005-.015.003-.008.005-.017.008-.025 0-.002 0-.004.001-.006.003-.011.006-.022.008-.033.001-.006-.001-.011-.003-.016.024-.042.055-.083.09-.122-.003.002-.007.004-.01.006-.033.021-.054.05-.085.073-.024.018-.07-.013-.041-.034.02-.015.035-.032.052-.047.001-.002.001-.003.002-.004.038-.037.074-.084.116-.115.026-.019.049-.035.07-.054.004-.003.007-.006.01-.009.016-.021.033-.039.051-.057.001-.001.001-.002.002-.002.218-.21.584-.201.871-.335.113-.045.249.023.363 0 .068 0 .136 0 .205.046-.205.111-.393.237-.579.353m.407.188c-.01.025-.034.047-.056.066.028.006.048.019.03.036-.053.048-.103.096-.172.12-.005.001-.019.003-.035.005-.028.026-.056.053-.085.079-.027.024-.152.007-.114-.027.058-.051.111-.107.168-.159.032-.029.066-.057.095-.09.015-.019.029-.036.048-.051.019-.013.139-.023.121.021m-1.055-3.404c-.023.046-.048.05-.068.091-.023.046-.046.068-.091.091-.023 0-.046 0-.046-.023.023-.091.091-.182.182-.204.023 0 .023.022.023.045m-1.886 1.5s-.023-.023-.023-.046c.296-.386.523-.75.727-1.158.296-.159.541-.391.773-.637.386-.409.795-.772 1.272-.999.182-.068.409-.046.591.022-.068.091-.182.069-.273.137-.023 0-.045 0-.068-.023.023-.023.023-.045.023-.068-.228.25-.546.363-.727.659-.137.227-.228.522-.523.59-.091.023.023-.068-.023-.045-.704.432-1.204.954-1.749 1.568m3.476.5c-.045 0-.136.022-.113-.023.022-.114.181-.114.272-.159.046-.023.114-.068.159-.046.046.068.114.046.159.091-.136.137-.318.068-.477.137m3.494 1.627c.129-.129.259-.267.389-.407h-.003c.241-.273.478-.533.758-.773.085-.076.168-.143.247-.198.022-.022.022-.068.045-.09-.113.045-.182.136-.295.181-.023 0-.046-.022-.023-.045.081-.061.162-.122.243-.182h-.016c-.022 0-.022-.023-.022-.045-.296-.046-.523.159-.727.34-.046.023-.091-.022-.114-.022-.341.113-.591.409-.932.545v-.045c-.136.045-.268.128-.408.159-.205.045-.387.022-.568.022-.276.028-.551.089-.827.147-.007.003-.016.004-.023.006-.148.041-.287.096-.424.171-.005.003-.01.006-.015.009-.012.014-.023.028-.033.039-.049.054-.091.103-.156.136-.14.071-.253.195-.377.295-.009.008-.022.011-.036.012-.122.117-.242.235-.366.35-.009.008-.044.013-.069.008 0 0 .001-.001.002-.002.004-.007.008-.014.013-.021.019-.032.038-.064.058-.096.022-.036.044-.071.067-.106.031-.047.063-.093.097-.138.009-.012.006-.022-.001-.03-.007-.007-.019-.012-.031-.012.113-.11.248-.203.381-.284v-.004c-.015.005-.037-.007-.026-.023.015-.02.026-.041.04-.062.002-.007.004-.013.007-.02-.006-.006-.012-.012-.017-.018-.037.024-.076.046-.107.074-.054.05-.097.15-.18.149-.005 0-.021-.001-.034-.005-.01-.002-.018-.005-.024-.008l.003-.006c.001-.002.002-.004.004-.006.001-.002.002-.004.003-.006.003-.006.007-.013.011-.019.003-.007.007-.013.01-.02.003-.005.006-.01.009-.016.006-.009.011-.019.016-.028l.012-.021c.01-.017.02-.033.029-.05l.015-.024c.008-.014.015-.028.024-.042.011-.018-.001-.034-.017-.04.042-.055.093-.1.155-.136h-.007c.087-.043.174-.097.261-.145.013-.011.025-.022.038-.033-.13.044-.246.102-.362.178 0 0-.029.013-.038.021 0 0-.026.01-.057-.021-.003-.004-.005-.009-.005-.016.023-.046.091-.068.136-.114.023 0 .046 0 .046.023.727-.568 1.726-.432 2.567-.727.068-.046.136-.091.204-.137.114-.045.205-.159.341-.227.182-.136.318-.295.386-.522 0-.023-.022-.046-.022-.046-.296.318-.636.568-1 .75-.477.25-.999.204-1.499.273.022-.046.068-.046.113-.046 0-.068.046-.091.091-.136h.068c.023 0 .023-.046.046-.046.045 0 .113-.022.091-.022-.069-.091-.205.068-.319 0 .046-.046.023-.114.069-.137h.091c0-.045.045-.09.045-.09.341-.205.659-.364.977-.546-.068 0-.114.068-.182.023.046 0 0-.068.046-.068.25-.068.454-.205.704-.296-.091 0-.159.069-.25 0 .045-.022.068-.068.136-.068v-.068c0-.023.023-.023.046-.023-.023 0-.046-.022-.046-.022.023-.046.091-.023.137-.068-.023 0-.069 0-.069-.023.069-.091.182-.114.296-.137-.023-.045-.091 0-.091-.045 0-.023.023-.023.045-.023h-.045c-.046-.022-.023-.068-.023-.091.137-.159.137-.363.205-.545-.023 0-.046 0-.046-.023-.227.25-.59.341-.931.432h-.114c-.113.046-.272.046-.386-.023-.091-.045-.136-.113-.227-.181-.182-.114-.364-.205-.568-.273-.568-.182-1.159-.273-1.75-.25.25-.136.526-.148.796-.227.386-.114.749-.25 1.158-.227-.068-.023-.159 0-.227 0-.318-.023-.636.068-.977.136-.227.045-.432.136-.659.182-.136.045-.204.182-.363.159v-.068c.227-.273.5-.546.863-.568.409-.068.795 0 1.204.045.296.023.568.091.864.159.113 0 .136.182.227.205.136.045.272 0 .409.091 0-.046-.023-.091 0-.137.091-.091.204.023.295-.023.182-.113-.159-.318-.25-.477 0-.022.023-.045.023-.045.182.159.318.341.545.454.114.046.386.114.341-.022-.114-.25-.341-.455-.523-.682v-.091c-.045 0-.045-.023-.068-.045v-.091c-.091-.046-.068-.136-.113-.205-.069-.113-.023-.272-.069-.409-.045-.136-.068-.249-.09-.386-.069-.386-.159-.727-.205-1.09-.045-.432.25-.773.454-1.159.159-.273.341-.545.637-.727.068-.273.25-.5.431-.727.182-.222.483-.357.702-.454.317-.142.603-.231.603-.231h-15.592v12.023h11.042c.433-.311.865-.459 1.469-.757.285-.14.937-.44 1.158-.661" fill="#243b7d" fill-rule="nonzero" transform="matrix(4.16667 0 0 4.16667 40.4837 14.2042)"/><path d="m0-12.023h-12.933s.024.004.123.057c.105.056.241.129.326.174.167.087.329.196.433.363.045.068.114.205.068.295-.045.114-.068.296-.182.341-.136.068-.318.068-.477.046-.09 0-.181-.023-.272-.046.34.137.659.296.886.614.022.045.113.068.204.068.023 0 .023.045.023.068-.046.045-.091.068-.068.136h.068c.114-.045.091-.272.25-.204.113.068.159.227.091.341-.091.09-.182.159-.273.227-.022.045-.022.113 0 .159.068.091.091.181.114.272.068.159.091.341.159.5.091.341.181.682.159 1.023 0 .181-.091.34-.023.522.045.182.159.318.25.477.091.137.182.227.25.364.136.227.386.454.273.727-.069.159-.319.136-.478.227-.136.114-.022.295.046.409.113.204-.136.341-.296.409.046.068.137.045.16.091.022.113.136.181.068.295-.091.136-.364.205-.228.409.092.159.033.336-.022.5-.068.204-.25.295-.409.341-.137.045-.296.045-.432.022-.045-.022-.091-.045-.136-.045-.386-.045-.773-.159-1.159-.159-.113.023-.227.045-.318.091-.103.075-.194.157-.275.243-.001.001-.002.002-.003.003-.017.018-.033.036-.049.055-.01.011-.02.023-.029.035-.007.008-.013.015-.02.023-.066.083-.126.171-.179.262-.003.006-.006.012-.01.018-.006.01-.011.021-.017.031-.075.138-.131.279-.172.417-.155.52-.087.967.021 1.075.03.03.75.253 1.252.476.235.104.399.185.536.271h12.7z" fill="#ed1c24" fill-rule="nonzero" transform="matrix(4.16667 0 0 4.16667 137.838 50.0958)"/><path d="m0-.841c.091.023.227.023.227.068-.045.182-.318.227-.454.409h-.068c-.069.046-.046.159-.114.159-.068-.022-.136 0-.204.023.09.091.204.159.34.136.023 0 .068.046.068.091 0 0 .023 0 .046-.023.023 0 .045 0 .045.023v.091c-.068.091-.181.045-.272.068.181.046.363.046.522 0 .137-.045 0-.273.091-.386-.045 0 0-.068-.045-.068.045-.046.091-.114.136-.137.046 0 .114-.022.136-.068 0-.045-.09-.068-.068-.113.136-.091.25-.228.205-.364-.023-.068-.205-.068-.318-.113-.114-.046-.25 0-.387.022-.113 0-.227.068-.34.091-.159.046-.296.136-.432.227.159-.068.318-.091.5-.136.136 0 .252-.034.386 0" fill="#939598" fill-rule="nonzero" transform="matrix(4.16667 0 0 4.16667 87.1554 21.7792)"/></svg>