<svg clip-rule="evenodd" fill-rule="evenodd" stroke-linejoin="round" stroke-miterlimit="2" viewBox="0 0 600 196" xmlns="http://www.w3.org/2000/svg"><path d="m45.8 385.6h-25.2v-156.2h60.5c36 0 55.3 18.2 55.3 47.5s-19.3 47.5-55.3 47.5h-35.3zm0-85.1h34.7c20.5 0 29.8-7.4 29.8-23.6s-9.2-23.7-29.8-23.7h-34.7zm178.9 85.1v-12.9c-7.4 9.5-18.3 15.6-33.6 15.6-29.9 0-53.4-23.5-53.4-56.2s23.5-56.2 53.4-56.2c15.3 0 26.1 6.2 33.6 15.7v-13h23.3v106.9h-23.3zm-63.1-53.4c0 18.7 12.2 34.3 32.3 34.3 19.2 0 32.3-14.7 32.3-34.3 0-19.5-13.1-34.3-32.3-34.3-20.1 0-32.3 15.6-32.3 34.3zm194.7-39.3-15 16c-7.5-7.1-15.4-11.1-25.6-11.1-18 0-31.6 14.1-31.6 34.3s13.6 34.3 31.6 34.3c10.3 0 19.4-4.8 26.2-11.2l14.4 16.1c-9.9 11.3-23.8 17.1-39.9 17.1-33.9 0-56.2-24.2-56.2-56.2s22.3-56.2 56.2-56.2c16.1-.1 30.5 5.7 39.9 16.9zm32.8 47.6v45.1h-23.4v-160.6l23.4-.6v94.4m106 66.8v-85.7h-21.3v-21.1h21.3v-32.4h23.4v32.4h21.4v21.1h-21.4v85.7zm-101.6-56.5 8.7-9.8 35.3-40.5h29.3l-44.8 50.2 45.3 56.6h-29.6l-35.6-45.1zm218.6 11.4-35.6 45.1h-29.6l45.2-56.6-44.8-50.2h29.4l35.3 40.5 8.6 9.8zm8.5 79.3h-600v-15.5h600z" fill="#ec670f" fill-rule="nonzero" transform="translate(-20.6 -224.4)"/></svg>